<svg width="25" height="24" viewBox="0 0 25 24" fill="none" xmlns="http://www.w3.org/2000/svg">
<g clip-path="url(#clip0_16_472)">
<path d="M21.2124 9.72208L13.7124 2.90646C13.4359 2.65348 13.0747 2.51318 12.6999 2.51318C12.3251 2.51318 11.9639 2.65348 11.6874 2.90646L4.18741 9.72208C4.03385 9.86257 3.91121 10.0335 3.82728 10.2239C3.74335 10.4144 3.69997 10.6202 3.69991 10.8283V19.4627C3.69381 19.8409 3.82732 20.208 4.07491 20.494C4.21543 20.6537 4.38853 20.7816 4.58258 20.8689C4.77662 20.9562 4.98712 21.001 5.19991 21.0002H9.69991C9.89882 21.0002 10.0896 20.9212 10.2302 20.7805C10.3709 20.6399 10.4499 20.4491 10.4499 20.2502V15.7502C10.4499 15.5513 10.5289 15.3605 10.6696 15.2199C10.8102 15.0792 11.001 15.0002 11.1999 15.0002H14.1999C14.3988 15.0002 14.5896 15.0792 14.7302 15.2199C14.8709 15.3605 14.9499 15.5513 14.9499 15.7502V20.2502C14.9499 20.4491 15.0289 20.6399 15.1696 20.7805C15.3102 20.9212 15.501 21.0002 15.6999 21.0002H20.1999C20.4487 21.0024 20.6939 20.9411 20.9124 20.8221C21.1501 20.6926 21.3487 20.5016 21.4872 20.269C21.6258 20.0365 21.6992 19.7709 21.6999 19.5002V10.8283C21.6998 10.6202 21.6565 10.4144 21.5725 10.2239C21.4886 10.0335 21.366 9.86257 21.2124 9.72208Z" fill="white" fill-opacity="0.7"/>
</g>
<defs>
<clipPath id="clip0_16_472">
<rect width="24" height="24" fill="white" transform="translate(0.699951)"/>
</clipPath>
</defs>
</svg>
